<svg data-v-423bf9ae="" xmlns="http://www.w3.org/2000/svg" viewBox="0 0 231.7224557059152 60" class="font"><!----><!----><!----><g data-v-423bf9ae="" id="3adbe631-9845-4211-b85d-5f0b8d53e5c2" fill="black" transform="matrix(4.8979591836734695,0,0,4.8979591836734695,0.0000029972621291562973,-13.910204829001913)"><path d="M2.10 5.84L2.10 5.84L2.10 5.84Q2.00 6.29 1.85 8.85L1.85 8.85L1.85 8.85Q1.69 11.41 1.69 12.69L1.69 12.69L1.69 12.69Q1.69 13.97 1.74 14.34L1.74 14.34L1.74 14.34Q1.78 14.71 2.03 14.71L2.03 14.71L2.03 14.71Q2.23 14.71 2.44 14.54L2.44 14.54L2.44 14.54Q2.65 14.36 2.65 14.20L2.65 14.20L2.65 14.20Q2.65 14.03 2.51 12.89L2.51 12.89L2.51 12.89Q2.38 11.75 2.38 10.81L2.38 10.81L2.38 10.81Q2.38 9.88 2.47 7.90L2.47 7.90L2.47 7.90Q2.56 5.91 2.63 5.57L2.63 5.57L2.63 5.57Q2.63 5.45 2.53 5.45L2.53 5.45L2.53 5.45Q2.39 5.45 2.28 5.60L2.28 5.60L2.28 5.60Q2.17 5.75 2.10 5.84ZM6.92 13.76L6.92 13.76L6.92 13.76Q6.68 14.71 6.24 14.71L6.24 14.71L6.24 14.71Q5.60 14.71 5.60 13.10L5.60 13.10L5.60 13.10Q5.60 12.66 5.68 12.15L5.68 12.15L5.68 12.15Q5.75 11.65 5.75 11.62L5.75 11.62L5.75 11.62Q5.75 11.23 5.41 10.16L5.41 10.16L5.41 10.16Q5.07 9.09 4.52 7.87L4.52 7.87L4.52 7.87Q3.98 6.66 3.16 5.74L3.16 5.74L3.16 5.74Q2.34 4.82 1.54 4.82L1.54 4.82L1.54 4.82Q1.04 4.82 0.67 5.35L0.67 5.35L0.67 5.35Q0.39 5.73 0.31 5.73L0.31 5.73L0.31 5.73Q0.17 5.73 0 5.31L0 5.31L0 5.31Q0.41 4.75 1.26 4.14L1.26 4.14L1.26 4.14Q2.11 3.53 2.91 3.53L2.91 3.53L2.91 3.53Q3.91 3.53 4.92 5.12L4.92 5.12L4.92 5.12Q5.94 6.71 6.52 9.02L6.52 9.02L6.52 9.02Q6.55 8.93 6.67 8.46L6.67 8.46L6.67 8.46Q6.79 7.99 6.84 7.84L6.84 7.84L6.84 7.84Q6.89 7.69 7.01 7.25L7.01 7.25L7.01 7.25Q7.14 6.82 7.25 6.54L7.25 6.54L7.25 6.54Q7.35 6.27 7.50 5.85L7.50 5.85L7.50 5.85Q7.71 5.31 8.29 4.17L8.29 4.17L8.29 4.17Q8.50 3.77 9.27 3.67L9.27 3.67L9.27 3.67Q9.44 3.67 9.44 3.79L9.44 3.79L9.44 3.79Q9.44 3.86 9.38 3.93L9.38 3.93L9.38 3.93Q8.74 4.68 7.99 6.55L7.99 6.55L7.99 6.55Q7.24 8.43 6.78 10.23L6.78 10.23L6.78 10.23Q7.03 11.68 7.03 12.47L7.03 12.47L7.03 12.47Q7.03 13.27 6.92 13.76ZM10.72 12.66L10.72 12.66L10.72 12.66Q10.07 12.66 9.69 12.32L9.69 12.32L9.69 12.32Q9.31 11.98 9.25 11.47L9.25 11.47L9.25 11.47Q9.03 11.63 9.03 12.09L9.03 12.09L9.03 12.09Q9.03 12.54 9.29 12.89L9.29 12.89L9.29 12.89Q9.55 13.23 9.93 13.23L9.93 13.23L9.93 13.23Q10.32 13.23 10.52 13.03L10.52 13.03L10.52 13.03Q10.72 12.84 10.72 12.66ZM11.27 11.72L11.27 11.72L11.27 11.72Q11.31 11.84 11.38 11.84L11.38 11.84L11.38 11.84Q11.44 11.84 11.59 11.77L11.59 11.77L11.59 11.77Q11.75 11.69 11.86 11.69L11.86 11.69L11.86 11.69Q11.97 11.69 11.97 11.83L11.97 11.83L11.97 11.83Q11.97 11.97 11.67 12.29L11.67 12.29L11.67 12.29Q11.37 12.61 11.16 12.61L11.16 12.61L11.16 12.61Q10.86 13.41 10.19 14.09L10.19 14.09L10.19 14.09Q9.51 14.77 8.79 14.77L8.79 14.77L8.79 14.77Q8.29 14.77 7.95 14.44L7.95 14.44L7.95 14.44Q7.62 14.11 7.62 13.47L7.62 13.47L7.62 13.47Q7.62 12.84 8.15 12.09L8.15 12.09L8.15 12.09Q8.68 11.34 9.24 11.34L9.24 11.34L9.24 11.28L9.24 11.28Q9.24 10.98 9.45 10.79L9.45 10.79L9.45 10.79Q9.66 10.60 9.97 10.60L9.97 10.60L9.97 10.60Q10.92 10.60 11.27 11.72ZM15.12 12.33L15.12 12.33L15.06 12.73L15.06 12.73Q15.06 12.98 15.28 13.25L15.28 13.25L15.28 13.25Q15.50 13.52 15.79 13.52L15.79 13.52L15.79 13.52Q16.02 13.52 16.16 13.43L16.16 13.43L16.16 13.43Q16.46 13.22 16.54 13.14L16.54 13.14L16.54 13.14Q16.62 13.06 16.79 13.06L16.79 13.06L16.79 13.06Q16.97 13.06 16.97 13.19L16.97 13.19L16.97 13.19Q16.97 13.33 16.31 14.07L16.31 14.07L16.31 14.07Q16.10 14.31 15.69 14.57L15.69 14.57L15.69 14.57Q15.29 14.84 14.97 14.84L14.97 14.84L14.97 14.84Q14.66 14.84 14.50 14.73L14.50 14.73L14.50 14.73Q14.34 14.63 14.27 14.41L14.27 14.41L14.27 14.41Q14.18 14.10 14.18 13.65L14.18 13.65L14.18 13.65Q14.18 13.59 14.11 13.59L14.11 13.59L14.11 13.59Q14.04 13.59 13.79 13.87L13.79 13.87L13.79 13.87Q13.01 14.69 12.52 14.69L12.52 14.69L12.52 14.69Q12.04 14.69 11.78 14.43L11.78 14.43L11.78 14.43Q11.52 14.18 11.52 13.79L11.52 13.79L11.52 13.79Q11.52 13.10 11.89 12.48L11.89 12.48L11.89 12.48Q12.25 11.86 12.75 11.48L12.75 11.48L12.75 11.48Q13.87 10.65 14.49 10.65L14.49 10.65L14.49 10.65Q15.41 10.68 15.41 11.31L15.41 11.31L15.41 11.31Q15.41 11.54 15.22 11.75L15.22 11.75L15.22 11.75Q15.02 11.97 14.85 11.97L14.85 11.97L14.85 11.97Q14.69 11.97 14.39 11.68L14.39 11.68L14.39 11.68Q14.10 11.38 13.75 11.38L13.75 11.38L13.75 11.38Q13.40 11.38 13.17 11.67L13.17 11.67L13.17 11.67Q12.95 11.96 12.95 12.40L12.95 12.40L12.95 12.40Q12.95 13.13 13.72 13.13L13.72 13.13L13.72 13.13Q14.03 13.13 14.23 12.98L14.23 12.98L14.23 12.98Q14.43 12.82 14.52 12.64L14.52 12.64L14.52 12.64Q14.76 12.17 14.95 12.17L14.95 12.17L14.95 12.17Q15.12 12.17 15.12 12.33ZM22.11 7.95L22.11 7.95L22.11 7.95Q22.79 7.14 22.79 6.20L22.79 6.20L22.79 6.20Q22.79 5.52 22.44 4.95L22.44 4.95L22.44 4.95Q22.09 4.38 21.39 4.10L21.39 4.10L21.39 4.10Q21.14 3.98 20.86 3.98L20.86 3.98L20.86 3.98Q20.03 3.98 19.28 4.73L19.28 4.73L19.28 4.73Q18.52 5.49 18.09 6.57L18.09 6.57L18.09 6.57Q17.67 7.64 17.67 8.75L17.67 8.75L17.67 8.75Q17.67 9.86 17.98 10.85L17.98 10.85L17.98 10.85Q18.28 11.84 18.73 11.84L18.73 11.84L18.73 11.84Q18.86 11.84 18.89 11.69L18.89 11.69L18.89 11.69Q19.18 10.60 19.49 7.49L19.49 7.49L19.49 7.49Q19.60 6.36 19.61 6.34L19.61 6.34L19.61 6.34Q20.13 5.99 20.26 5.99L20.26 5.99L20.26 5.99Q20.34 5.99 20.34 6.20L20.34 6.20L20.34 6.20Q20.34 6.41 20.22 6.99L20.22 6.99L20.22 6.99Q19.74 9.18 18.91 14.20L18.91 14.20L18.91 14.20Q18.86 14.42 18.68 14.42L18.68 14.42L18.68 14.42Q17.99 14.42 17.49 12.73L17.49 12.73L17.49 12.73Q16.98 11.03 16.98 9.30L16.98 9.30L16.98 9.30Q16.98 7.56 17.67 6.08L17.67 6.08L17.67 6.08Q18.35 4.61 19.56 3.72L19.56 3.72L19.56 3.72Q20.78 2.84 22.22 2.84L22.22 2.84L22.22 2.84Q23.23 2.84 23.86 3.51L23.86 3.51L23.86 3.51Q24.49 4.17 24.49 5.18L24.49 5.18L24.49 5.18Q24.49 6.19 23.94 6.92L23.94 6.92L23.94 6.92Q23.39 7.64 22.68 8.08L22.68 8.08L22.68 8.08Q23.45 8.34 23.98 9.03L23.98 9.03L23.98 9.03Q24.95 10.25 24.95 11.58L24.95 11.58L24.95 11.58Q24.95 12.92 23.95 14.01L23.95 14.01L23.95 14.01Q22.96 15.09 21.73 15.09L21.73 15.09L21.73 15.09Q20.79 15.09 20.08 14.15L20.08 14.15L20.08 14.15Q19.38 13.22 19.38 12.60L19.38 12.60L19.38 12.60Q19.38 12.49 19.51 12.40L19.51 12.40L19.51 12.40Q19.64 12.32 20.27 11.98L20.27 11.98L20.27 11.98Q20.90 11.63 20.97 11.62L20.97 11.62L20.97 11.62Q21.04 11.61 21.13 11.61L21.13 11.61L21.13 11.61Q21.17 11.62 21.24 11.75L21.24 11.75L21.24 11.75Q21.50 12.40 22.04 13.13L22.04 13.13L22.04 13.13Q22.57 13.86 23.10 13.86L23.10 13.86L23.10 13.86Q23.56 13.86 23.56 13.04L23.56 13.04L23.56 13.04Q23.56 12.22 23.11 11.31L23.11 11.31L23.11 11.31Q22.65 10.40 22.02 9.78L22.02 9.78L22.02 9.78Q21.39 9.16 20.93 9.16L20.93 9.16L20.93 9.16Q20.78 9.16 20.50 9.26L20.50 9.26L20.50 9.26Q20.23 9.37 20.13 9.37L20.13 9.37L20.13 9.37Q19.88 9.31 19.88 8.95L19.88 8.95L19.88 8.95Q19.88 8.60 20.39 8.25L20.39 8.25L20.39 8.25Q20.90 7.91 21.63 7.91L21.63 7.91L21.63 7.91Q21.87 7.91 22.11 7.95ZM25.24 12.29L25.24 12.29L24.86 12.32L24.86 12.32Q24.61 12.32 24.61 12.19L24.61 12.19L24.61 12.19Q24.61 12.00 25.11 11.45L25.11 11.45L25.11 11.45Q25.61 10.89 26.00 10.89L26.00 10.89L26.00 10.89Q26.17 10.89 26.30 10.99L26.30 10.99L26.30 10.99Q26.43 11.09 26.45 11.23L26.45 11.23L26.52 11.86L26.52 11.86Q26.56 11.91 26.60 11.91L26.60 11.91L26.60 11.91Q26.64 11.91 26.82 11.69L26.82 11.69L26.82 11.69Q27.41 11.00 27.87 11.00L27.87 11.00L27.87 11.00Q28.06 11.00 28.17 11.06L28.17 11.06L28.17 11.06Q28.28 11.12 28.43 11.28L28.43 11.28L28.43 11.28Q28.57 11.44 28.59 11.45L28.59 11.45L28.59 11.45Q28.69 11.41 28.78 11.41L28.78 11.41L28.78 11.41Q28.94 11.41 28.94 11.60L28.94 11.60L28.94 11.60Q28.94 11.79 28.39 12.30L28.39 12.30L28.39 12.30Q27.85 12.81 27.58 12.81L27.58 12.81L27.58 12.81Q27.31 12.81 27.13 12.57L27.13 12.57L27.13 12.57Q26.95 12.33 26.87 12.33L26.87 12.33L26.87 12.33Q26.54 12.33 26.54 12.67L26.54 12.67L26.54 12.67Q26.54 12.92 26.78 13.52L26.78 13.52L26.78 13.52Q27.01 14.13 27.01 14.24L27.01 14.24L27.01 14.24Q27.01 14.52 26.72 14.68L26.72 14.68L26.72 14.68Q26.43 14.84 26.09 14.84L26.09 14.84L26.09 14.84Q25.75 14.84 25.54 14.73L25.54 14.73L25.54 14.73Q25.33 14.62 25.33 14.42L25.33 14.42L25.72 12.73L25.72 12.73Q25.72 12.29 25.24 12.29ZM30.18 12.52L30.18 12.52Q30.42 12.43 30.67 11.98L30.67 11.98L30.67 11.98Q30.91 11.52 30.91 11.23L30.91 11.23L30.91 11.23Q30.91 10.93 30.69 10.92L30.69 10.92L30.69 10.92Q30.35 10.92 30.21 11.22L30.21 11.22L30.21 11.22Q30.07 11.52 30.07 11.88L30.07 11.88L30.07 11.88Q30.07 12.24 30.18 12.52L30.18 12.52ZM31.39 13.43L31.39 13.43L31.39 13.43Q31.78 13.43 32.04 13.25L32.04 13.25L32.04 13.25Q32.30 13.08 32.53 12.80L32.53 12.80L32.53 12.80Q32.76 12.52 32.89 12.52L32.89 12.52L32.89 12.52Q33.03 12.52 33.03 12.64L33.03 12.64L33.03 12.64Q33.03 12.73 32.97 12.84L32.97 12.84L32.97 12.84Q32.51 13.58 31.82 14.15L31.82 14.15L31.82 14.15Q31.14 14.71 30.37 14.71L30.37 14.71L30.37 14.71Q29.60 14.71 29.25 14.34L29.25 14.34L29.25 14.34Q28.91 13.97 28.91 13.36L28.91 13.36L28.91 13.36Q28.91 12.29 29.71 11.18L29.71 11.18L29.71 11.18Q30.51 10.07 31.36 10.07L31.36 10.07L31.36 10.07Q31.81 10.07 31.81 10.43L31.81 10.43L31.81 10.43Q31.81 10.92 31.50 11.45L31.50 11.45L31.50 11.45Q31.19 11.97 30.37 12.87L30.37 12.87L30.37 12.87Q30.74 13.43 31.39 13.43ZM33.64 12.31L33.64 12.31L33.64 12.31Q33.64 12.81 33.94 13.15L33.94 13.15L33.94 13.15Q34.23 13.50 34.71 13.50L34.71 13.50L34.71 13.50Q35.20 13.50 35.51 13.38L35.51 13.38L35.51 13.38Q35.83 13.26 35.99 13.14L35.99 13.14L35.99 13.14Q36.16 13.02 36.25 13.02L36.25 13.02L36.25 13.02Q36.37 13.02 36.37 13.15L36.37 13.15L36.37 13.15Q36.37 13.58 35.56 14.17L35.56 14.17L35.56 14.17Q34.75 14.77 33.67 14.77L33.67 14.77L33.67 14.77Q32.98 14.77 32.64 14.43L32.64 14.43L32.64 14.43Q32.30 14.08 32.30 13.52L32.30 13.52L32.30 13.52Q32.30 12.52 33.16 11.51L33.16 11.51L33.16 11.51Q34.02 10.51 35.14 10.51L35.14 10.51L35.14 10.51Q35.41 10.51 35.57 10.67L35.57 10.67L35.57 10.67Q35.73 10.84 35.73 11.14L35.73 11.14L35.73 11.14Q35.73 11.44 35.39 11.81L35.39 11.81L35.39 11.81Q35.04 12.18 34.69 12.18L34.69 12.18L34.69 12.18Q34.59 12.18 34.59 12.08L34.59 12.08L34.59 12.08Q34.59 11.98 34.70 11.87L34.70 11.87L34.70 11.87Q34.80 11.76 34.80 11.60L34.80 11.60L34.80 11.60Q34.80 11.44 34.70 11.28L34.70 11.28L34.70 11.28Q34.59 11.13 34.47 11.13L34.47 11.13L34.47 11.13Q34.09 11.13 33.87 11.47L33.87 11.47L33.87 11.47Q33.64 11.82 33.64 12.31ZM37.62 6.19L37.62 6.19L37.62 6.19Q37.04 6.19 37.04 9.98L37.04 9.98L37.04 10.82L37.04 10.82Q37.41 9.90 37.72 8.78L37.72 8.78L37.72 8.78Q38.04 7.66 38.04 6.92L38.04 6.92L38.04 6.92Q38.04 6.19 37.62 6.19ZM37.18 13.44L37.18 13.44L37.18 13.44Q37.32 13.44 38.00 12.52L38.00 12.52L38.00 12.52Q38.67 11.59 38.85 11.58L38.85 11.58L38.85 11.58Q39.03 11.58 39.21 11.89L39.21 11.89L39.21 11.89Q39.40 12.19 39.57 12.56L39.57 12.56L39.57 12.56Q39.75 12.94 40.14 13.25L40.14 13.25L40.14 13.25Q40.53 13.57 40.92 13.57L40.92 13.57L40.92 13.57Q41.31 13.57 41.40 13.51L41.40 13.51L41.40 13.51Q41.48 13.45 41.53 13.45L41.53 13.45L41.53 13.45Q41.58 13.45 41.58 13.57L41.58 13.57L41.58 13.57Q41.57 13.85 41.13 14.24L41.13 14.24L41.13 14.24Q40.70 14.64 39.98 14.64L39.98 14.64L39.98 14.64Q38.78 14.64 38.30 13.26L38.30 13.26L38.30 13.26Q38.26 13.17 38.23 13.17L38.23 13.17L38.23 13.17Q38.19 13.17 38.12 13.23L38.12 13.23L38.12 13.23Q38.05 13.29 37.83 13.55L37.83 13.55L37.83 13.55Q37.60 13.82 37.37 14.10L37.37 14.10L37.37 14.10Q37.14 14.38 37.09 14.43L37.09 14.43L37.09 14.43Q37.03 14.49 36.88 14.49L36.88 14.49L36.88 14.49Q36.72 14.49 36.71 14.32L36.71 14.32L36.71 14.32Q36.58 13.06 36.58 11.68L36.58 11.68L36.58 11.68Q36.58 10.30 36.62 9.55L36.62 9.55L36.62 9.55Q36.65 8.79 36.76 7.60L36.76 7.60L36.76 7.60Q36.88 6.41 37.16 5.66L37.16 5.66L37.16 5.66Q37.45 4.90 37.88 4.90L37.88 4.90L37.88 4.90Q38.79 4.90 38.79 6.17L38.79 6.17L38.79 6.17Q38.79 7.27 38.21 8.92L38.21 8.92L38.21 8.92Q37.62 10.58 37.07 11.55L37.07 11.55L37.07 11.55Q37.13 13.44 37.18 13.44ZM38.75 9.83L38.75 9.83L38.75 9.83Q38.75 9.55 39.20 9.41L39.20 9.41L39.20 9.41Q39.89 9.11 41.44 8.50L41.44 8.50L41.44 8.50Q41.72 6.37 42.28 6.37L42.28 6.37L42.28 6.37Q42.64 6.37 42.64 7.53L42.64 7.53L42.64 7.53Q42.64 7.87 42.63 8.04L42.63 8.04L42.63 8.04Q44.76 7.22 45.49 7.04L45.49 7.04L45.49 7.04Q46.21 6.86 46.65 6.86L46.65 6.86L46.65 6.86Q47.31 6.86 47.31 7.34L47.31 7.34L47.31 7.34Q47.31 7.49 47.11 7.59L47.11 7.59L47.11 7.59Q46.24 8.02 46.03 8.02L46.03 8.02L46.03 8.02Q45.99 8.02 45.89 7.96L45.89 7.96L45.89 7.96Q45.79 7.90 45.67 7.90L45.67 7.90L45.67 7.90Q45.54 7.90 45.15 7.99L45.15 7.99L45.15 7.99Q44.35 8.20 42.53 8.81L42.53 8.81L42.53 8.81Q42.36 9.90 42.04 10.37L42.04 10.37L42.04 10.37Q42.10 11.97 42.46 12.53L42.46 12.53L42.46 12.53Q42.63 12.80 42.95 12.99L42.95 12.99L42.95 12.99Q43.26 13.19 43.72 13.19L43.72 13.19L43.72 13.19Q44.18 13.19 44.63 12.77L44.63 12.77L44.63 12.77Q44.72 12.68 44.77 12.68L44.77 12.68L44.77 12.68Q44.88 12.68 44.88 12.87L44.88 12.87L44.88 12.87Q44.88 13.45 44.10 14.05L44.10 14.05L44.10 14.05Q43.32 14.64 42.60 14.64L42.60 14.64L42.60 14.64Q41.19 14.64 41.19 12.35L41.19 12.35L41.19 12.35Q41.19 10.91 41.36 9.24L41.36 9.24L41.36 9.24Q40.19 9.69 39.64 9.97L39.64 9.97L39.64 9.97Q39.09 10.25 38.99 10.25L38.99 10.25L38.99 10.25Q38.89 10.25 38.82 10.11L38.82 10.11L38.82 10.11Q38.75 9.97 38.75 9.83Z"></path></g><!----><!----></svg>